<svg xmlns="http://www.w3.org/2000/svg" viewBox="-149 20 699 318" style="stroke:#26659e;fill:transparent"><circle cx="197.2" cy="167.5" r="23.7"/><circle cx="197.7" cy="167.4" r="30.1"/><circle cx="199" cy="177.8" r="98.1"/><circle cx="197.7" cy="178.1" r="108.3"/><circle cx="198.6" cy="178.2" r="147.3"/><circle cx="198.6" cy="178.2" r="147.3"/><path d="m-135 149 685 1"/><circle cx="315.7" cy="266.3" r="37.9"/><path d="M-123 223h671"/><circle cx="50.2" cy="129.6" r="47.3"/><circle cx="49.8" cy="129" r="59.9"/><circle cx="-14.2" cy="189.5" r="38.1"/><ellipse cx="-62.7" cy="205.6" rx="11.8" ry="11.6"/><ellipse cx="440.1" cy="183.6" rx="53.8" ry="27.6"/><ellipse cx="443.6" cy="183.9" rx="87.1" ry="47.3"/><circle cx="371.2" cy="186.4" r="14.4"/><circle cx="387.3" cy="207.2" r="11.6"/><circle cx="407.2" cy="216.5" r="10.1"/><path d="M-148 217h698m-674-72h651m-651 40h670m1-17v31m-79-79v128M193 23v119m12-91v91m-12 79v-24m11 25v-26m0 121v-80m-11 64v-67m-30 13v-30m93 31v-26m74-30v39m-59-56h87m-195-55v28"/><circle cx="198.1" cy="178.9" r="44.7"/><path d="M-124 136v87m15-92v104m11-2v-84m79 74v-87h31l1 86m-58-87h19v7h-19zm0 20h19v7h-19zm0 11h19v7h-19zm171-96-14-25 8-4 14 24"/><path d="m161 55-15-25 8-4 15 25" style="transform-box:fill-box;transform-origin:50% 50%" transform="rotate(16 0 0)"/><path d="m236 53-15-24 8-5 15 25" style="transform-origin:232.507px 38.765px" transform="rotate(48 0 0)"/><path d="m271 67-14-25 8-4 14 25" style="transform-origin:267.92px 52.251px" transform="rotate(60 0 0)"/><path d="m326 119-15-25 8-4 14 25" style="transform-origin:322.299px 104.219px" transform="rotate(90 0 0)"/><path d="m341 153-15-24 8-5 14 25" style="transform-origin:337.322px 138.644px" transform="rotate(105 0 0)"/><path d="m328 263-14-24 7-5 15 25" style="transform-origin:324.713px 248.721px" transform="rotate(151 0 0)"/><path d="m306 294-15-25 8-4 14 25" style="transform-origin:302.238px 279.2px" transform="rotate(165 0 0)"/><path d="m276 317-14-24 7-5 15 25" style="transform-origin:272.636px 302.827px" transform="rotate(-180 0 0)"/><path d="m242 332-15-24 8-5 15 25" style="transform-origin:238.485px 317.572px" transform="rotate(-164 0 0)"/><path d="m167 334-15-25 8-4 14 25" style="transform-origin:163.281px 319.341px" transform="rotate(-135 0 0)"/><path d="m131 320-14-25 8-4 14 25" style="transform-origin:128.009px 305.267px" transform="rotate(-120 0 0)"/><path d="m101 298-15-25 8-4 14 24" style="transform-origin:97.447px 283.136px" transform="rotate(-105 0 0)"/><path d="m77 268-14-24 8-5 14 25" style="transform-origin:73.879px 253.737px" transform="rotate(-91 0 0)"/><path d="m61 159-15-25 8-5 14 25" style="transform-origin:57.211px 143.952px" transform="rotate(-45 0 0)"/><path d="M74 124 60 99l8-4 14 24" style="transform-origin:70.769px 109.111px" transform="rotate(-31 0 0)"/><path d="m50 232 85-96"/></svg>